<svg width="45" height="45" viewBox="0 0 45 45" fill="none" xmlns="http://www.w3.org/2000/svg">
<circle cx="22.5" cy="22.5" r="22.5" fill="#58BEBF" fill-opacity="0.2"/>
<g filter="url(#filter0_d)">
<path fill-rule="evenodd" clip-rule="evenodd" d="M19.6024 32.7964V28.5415H25.875V32.7964H30.6021V9.87805H14.8746V32.7964H19.6024ZM25.875 11.9835H28.5206V14.6584H25.875V11.9835ZM28.5206 15.8722H25.875V18.5479H28.5206V15.8722ZM25.875 19.7616H28.5206V22.4359H25.875V19.7616ZM28.5206 23.6496H25.875V26.3261H28.5206V23.6496ZM21.4163 11.9835H24.0626V14.6584H21.4163V11.9835ZM24.0626 15.8722H21.4163V18.5479H24.0626V15.8722ZM21.4163 19.7616H24.0626V22.4359H21.4163V19.7616ZM24.0626 23.6496H21.4163V26.3261H24.0626V23.6496ZM16.9576 11.9835H19.6032V14.6584H16.9576V11.9835ZM19.6032 15.8722H16.9576V18.5479H19.6032V15.8722ZM16.9576 19.7616H19.6032V22.4359H16.9576V19.7616ZM19.6032 23.6496H16.9576V26.3261H19.6032V23.6496Z" fill="#58BEBF"/>
</g>
<defs>
<filter id="filter0_d" x="10.8746" y="9.87805" width="23.7276" height="30.9184" filterUnits="userSpaceOnUse" color-interpolation-filters="sRGB">
<feFlood flood-opacity="0" result="BackgroundImageFix"/>
<feColorMatrix in="SourceAlpha" type="matrix" values="0 0 0 0 0 0 0 0 0 0 0 0 0 0 0 0 0 0 127 0" result="hardAlpha"/>
<feOffset dy="4"/>
<feGaussianBlur stdDeviation="2"/>
<feComposite in2="hardAlpha" operator="out"/>
<feColorMatrix type="matrix" values="0 0 0 0 0 0 0 0 0 0 0 0 0 0 0 0 0 0 0.25 0"/>
<feBlend mode="normal" in2="BackgroundImageFix" result="effect1_dropShadow"/>
<feBlend mode="normal" in="SourceGraphic" in2="effect1_dropShadow" result="shape"/>
</filter>
</defs>
</svg>
